<svg width="174" height="57" viewBox="0 0 174 57" fill="none" xmlns="http://www.w3.org/2000/svg">
<g clip-path="url(#clip0_715:5892)">
<path d="M32.1742 54.2888C32.1422 54.3211 32.1101 54.3211 32.0781 54.3534L32.1742 54.2888Z" fill="url(#paint0_linear_715:5892)"/>
<path d="M51.1272 39.1189C51.1912 40.9586 50.3588 42.7338 48.9182 43.8635L45.1084 46.2519L38.5774 50.3187L32.1745 54.2887L32.0784 54.3533L29.2291 56.1285C27.4683 57.2259 25.2913 57.2904 23.4985 56.2899L13.9581 51.0934L3.64936 45.5096C1.85653 44.5413 0.704001 42.637 0.639971 40.5713L0.319824 29.4682L26.0276 43.4439L26.0597 43.4762L32.5586 39.3771L23.0183 34.2129L35.1839 26.6279L44.6602 31.7921L47.6376 33.406C49.7185 34.5356 51.0632 36.7304 51.1272 39.1189Z" fill="url(#paint1_linear_715:5892)"/>
<path d="M18.5994 17.591L27.7236 22.5616L15.558 30.1465L6.49781 25.2083L3.48843 23.5622C1.40747 22.4325 0.0628553 20.27 -0.0011741 17.8815C-0.0652035 16.1063 0.70315 14.428 2.04777 13.2983L6.04961 10.7807L8.19459 9.42513L13.2209 6.26205L21.9289 0.871904C23.6897 -0.225491 25.8667 -0.290044 27.6595 0.710522L37.2319 5.90701L47.4767 11.4908C49.2695 12.4591 50.422 14.3634 50.486 16.4291L50.8062 27.5322L25.0984 13.5242L18.5994 17.591Z" fill="url(#paint2_linear_715:5892)"/>
<path d="M72.5131 37.4406C73.2174 37.4406 73.8257 37.3761 74.3059 37.2469C74.7861 37.1178 75.1383 36.9565 75.4264 36.7628C75.7145 36.5691 75.9066 36.3109 76.0027 36.0204C76.0987 35.73 76.1627 35.4072 76.1627 35.0522C76.1627 34.3098 75.8106 33.6966 75.1063 33.1801C74.4019 32.696 73.2174 32.1473 71.5206 31.5986C70.7843 31.3404 70.0479 31.0499 69.3116 30.6949C68.5752 30.3398 67.9029 29.9202 67.3267 29.4038C66.7504 28.8874 66.2702 28.2741 65.886 27.5318C65.5018 26.7894 65.3418 25.918 65.3418 24.8528C65.3418 23.7877 65.5338 22.8517 65.918 22.0125C66.3022 21.1733 66.8785 20.4633 67.5828 19.85C68.2871 19.2368 69.1835 18.8172 70.176 18.4944C71.2005 18.1716 72.353 18.0103 73.6336 18.0103C75.1703 18.0103 76.4829 18.1716 77.5714 18.4944C78.6919 18.8172 79.5883 19.1722 80.3247 19.5918L78.852 23.6263C78.2117 23.3036 77.5074 23.0131 76.739 22.7549C75.9707 22.4967 75.0422 22.3676 73.9537 22.3676C72.7372 22.3676 71.8728 22.5289 71.3285 22.884C70.7843 23.239 70.5281 23.7554 70.5281 24.4332C70.5281 24.8528 70.6242 25.2079 70.8163 25.4984C71.0084 25.7889 71.2965 26.0471 71.6487 26.273C72.0008 26.4989 72.417 26.7249 72.8972 26.8862C73.3775 27.0799 73.8897 27.2736 74.4339 27.4672C75.6185 27.9191 76.643 28.3387 77.5074 28.7583C78.3718 29.1779 79.1081 29.6943 79.6844 30.243C80.2606 30.824 80.6768 31.4695 80.9649 32.2441C81.2531 33.0187 81.3811 33.9548 81.3811 35.0522C81.3811 37.1824 80.6448 38.8285 79.1721 39.9904C77.6994 41.1524 75.4584 41.7656 72.481 41.7656C71.4886 41.7656 70.5922 41.7011 69.7598 41.572C68.9594 41.4429 68.2551 41.3138 67.6148 41.1201C67.0065 40.9587 66.4623 40.7651 66.0141 40.5714C65.5659 40.3778 65.1817 40.1841 64.8936 40.0227L66.3342 35.9559C67.0065 36.3432 67.8389 36.666 68.8314 36.9565C69.8558 37.2792 71.0724 37.4406 72.5131 37.4406Z" fill="#182331"/>
<path d="M84.1982 32.696C84.1982 31.4372 84.3903 30.2752 84.8065 29.1456C85.2227 28.0482 85.799 27.0799 86.5673 26.2407C87.3357 25.4338 88.2641 24.756 89.3526 24.2718C90.4411 23.7877 91.6897 23.5618 93.0663 23.5618C93.9947 23.5618 94.8271 23.6586 95.5635 23.82C96.3318 23.9814 97.0681 24.2073 97.7725 24.5301L96.748 28.4355C96.2998 28.2741 95.7876 28.1127 95.2433 27.9836C94.6991 27.8545 94.0908 27.79 93.4185 27.79C91.9778 27.79 90.9213 28.2418 90.217 29.1456C89.5127 30.0493 89.1605 31.2435 89.1605 32.696C89.1605 34.2452 89.4807 35.4717 90.153 36.3109C90.8253 37.1501 91.9778 37.602 93.6106 37.602C94.1868 37.602 94.8271 37.5374 95.4994 37.4406C96.1717 37.3438 96.78 37.1501 97.3563 36.9242L98.0286 40.9264C97.4523 41.1524 96.748 41.3783 95.9156 41.5397C95.0832 41.7011 94.1228 41.7979 93.0983 41.7979C91.5296 41.7979 90.185 41.572 89.0645 41.0878C87.944 40.6037 87.0155 39.9904 86.2792 39.1512C85.5429 38.3443 85.0306 37.376 84.6785 36.2786C84.3583 35.1812 84.1982 33.987 84.1982 32.696Z" fill="#182331"/>
<path d="M101.326 41.346V16.6223L106.192 15.8477V24.1427C106.513 24.0458 106.929 23.9167 107.441 23.8199C107.953 23.7231 108.433 23.6585 108.914 23.6585C110.29 23.6585 111.475 23.8522 112.371 24.2395C113.3 24.6268 114.036 25.1755 114.58 25.8533C115.125 26.5634 115.541 27.4026 115.765 28.3386C115.989 29.3069 116.117 30.372 116.117 31.5662V41.346H111.251V32.1795C111.251 30.5979 111.059 29.4683 110.642 28.8227C110.226 28.1772 109.49 27.8222 108.401 27.8222C107.953 27.8222 107.569 27.8545 107.185 27.9513C106.801 28.0158 106.449 28.1127 106.16 28.2095V41.346H101.326V41.346Z" fill="#182331"/>
<path d="M119.703 32.825C119.703 31.2758 119.927 29.9524 120.407 28.7905C120.887 27.6285 121.495 26.6925 122.264 25.9179C123.032 25.1433 123.897 24.5623 124.889 24.175C125.881 23.7877 126.906 23.594 127.93 23.594C130.364 23.594 132.284 24.3363 133.693 25.8533C135.102 27.3703 135.806 29.5651 135.806 32.47C135.806 32.7605 135.806 33.0832 135.774 33.406C135.742 33.761 135.742 34.0515 135.71 34.3097H124.697C124.793 35.3103 125.273 36.1172 126.106 36.6982C126.938 37.2792 128.026 37.6019 129.435 37.6019C130.332 37.6019 131.196 37.5051 132.06 37.3437C132.925 37.1823 133.629 36.9887 134.173 36.7305L134.814 40.7005C134.557 40.8296 134.205 40.9587 133.757 41.0878C133.309 41.2169 132.829 41.346 132.316 41.4428C131.772 41.5396 131.228 41.6365 130.62 41.701C130.011 41.7656 129.403 41.7978 128.795 41.7978C127.258 41.7978 125.913 41.5719 124.761 41.12C123.608 40.6682 122.68 40.0227 121.912 39.2157C121.175 38.4088 120.599 37.4728 120.247 36.3754C119.895 35.278 119.703 34.0838 119.703 32.825ZM131.132 30.953C131.1 30.5334 131.036 30.1461 130.908 29.7265C130.78 29.3069 130.588 28.9841 130.364 28.6614C130.107 28.3386 129.787 28.1127 129.403 27.919C129.019 27.7254 128.539 27.6285 127.994 27.6285C127.45 27.6285 126.97 27.7254 126.586 27.919C126.202 28.1127 125.881 28.3386 125.593 28.6614C125.337 28.9841 125.145 29.3392 124.985 29.7265C124.857 30.1461 124.729 30.5334 124.665 30.953H131.132Z" fill="#182331"/>
<path d="M154.695 40.7973C154.247 40.9264 153.766 41.0555 153.19 41.1846C152.614 41.3137 152.038 41.4105 151.397 41.5073C150.789 41.6042 150.149 41.6687 149.508 41.7333C148.868 41.7978 148.26 41.8301 147.652 41.8301C146.243 41.8301 144.962 41.6364 143.874 41.2169C142.753 40.7973 141.825 40.2163 141.057 39.4094C140.288 38.6347 139.712 37.6987 139.296 36.5691C138.88 35.4717 138.688 34.2129 138.688 32.825C138.688 31.4371 138.848 30.1461 139.2 29.0164C139.552 27.8867 140.032 26.9184 140.704 26.1438C141.345 25.3692 142.145 24.7559 143.106 24.3363C144.066 23.9167 145.122 23.7231 146.339 23.7231C147.011 23.7231 147.62 23.7876 148.164 23.9167C148.708 24.0458 149.22 24.2395 149.765 24.4654V16.6223L154.631 15.8477V40.7973H154.695ZM143.714 32.5668C143.714 34.0838 144.066 35.3103 144.738 36.214C145.411 37.15 146.403 37.6019 147.748 37.6019C148.196 37.6019 148.58 37.5696 148.964 37.5374C149.348 37.5051 149.637 37.4728 149.893 37.4082V28.5323C149.573 28.3386 149.188 28.1772 148.708 28.0481C148.228 27.919 147.716 27.8545 147.235 27.8545C144.866 27.8222 143.714 29.4037 143.714 32.5668Z" fill="#182331"/>
<path d="M174 24.0459C173.007 27.3704 171.983 30.5012 170.926 33.4061C169.87 36.311 168.685 39.1513 167.437 41.8948C166.988 42.8953 166.508 43.7345 166.06 44.4123C165.612 45.0901 165.1 45.6711 164.555 46.123C164.011 46.5748 163.403 46.8976 162.699 47.1235C162.026 47.3172 161.226 47.4463 160.297 47.4463C159.529 47.4463 158.825 47.3817 158.184 47.2204C157.544 47.0912 157 46.9299 156.616 46.7362L157.448 42.8308C157.96 42.9922 158.409 43.1213 158.793 43.1858C159.177 43.2504 159.593 43.2826 160.041 43.2826C160.906 43.2826 161.578 43.0567 162.058 42.5726C162.538 42.0884 162.923 41.4429 163.243 40.6037C162.122 38.4089 161.034 35.9559 159.913 33.2124C158.793 30.4689 157.768 27.435 156.776 24.0137H161.93C162.154 24.8529 162.41 25.7889 162.699 26.7894C162.987 27.79 163.307 28.7906 163.627 29.8234C163.947 30.8563 164.299 31.8245 164.619 32.7928C164.972 33.7611 165.292 34.6326 165.58 35.4072C165.868 34.6326 166.156 33.7288 166.476 32.7928C166.796 31.8245 167.085 30.824 167.373 29.8234C167.661 28.8228 167.949 27.79 168.237 26.7894C168.525 25.7889 168.749 24.8529 168.973 24.0137H174V24.0459Z" fill="#182331"/>
</g>
<defs>
<linearGradient id="paint0_linear_715:5892" x1="32.0842" y1="54.3257" x2="32.1779" y2="54.3257" gradientUnits="userSpaceOnUse">
<stop stop-color="#0CA7EC"/>
<stop offset="0.9944" stop-color="#4465D8"/>
</linearGradient>
<linearGradient id="paint1_linear_715:5892" x1="0.331382" y1="41.81" x2="51.1349" y2="41.81" gradientUnits="userSpaceOnUse">
<stop stop-color="#0CA7EC"/>
<stop offset="0.9944" stop-color="#4465D8"/>
</linearGradient>
<linearGradient id="paint2_linear_715:5892" x1="-0.0011741" y1="15.0744" x2="50.8023" y2="15.0744" gradientUnits="userSpaceOnUse">
<stop stop-color="#0CA7EC"/>
<stop offset="0.9944" stop-color="#4465D8"/>
</linearGradient>
<clipPath id="clip0_715:5892">
<rect width="174" height="57" fill="white"/>
</clipPath>
</defs>
</svg>
